<?xml version="1.0" encoding="UTF-8"?>
<svg xmlns="http://www.w3.org/2000/svg" xmlns:xlink="http://www.w3.org/1999/xlink" width="400px" height="400px" viewBox="0 0 400 400" version="1.1">
<g id="surface1">
<path style=" stroke:none;fill-rule:nonzero;fill:rgb(0%,0%,0%);fill-opacity:1;" d="M 200.015625 0.0078125 C 89.550781 0.0078125 0 89.546875 0 199.980469 C 0 281.894531 49.238281 352.242188 119.722656 383.171875 C 119.125 369.195312 119.59375 352.449219 123.171875 337.257812 C 127.039062 321.015625 148.933594 228.265625 148.933594 228.265625 C 148.933594 228.265625 142.550781 215.496094 142.550781 196.632812 C 142.550781 166.988281 159.726562 144.859375 181.101562 144.859375 C 199.3125 144.859375 208.082031 158.53125 208.082031 174.882812 C 208.082031 193.15625 196.433594 220.527344 190.441406 245.851562 C 185.433594 267.074219 201.078125 284.382812 221.984375 284.382812 C 259.886719 284.382812 285.414062 235.695312 285.414062 178.046875 C 285.414062 134.222656 255.890625 101.414062 202.191406 101.414062 C 141.511719 101.414062 103.742188 146.648438 103.742188 197.179688 C 103.742188 214.613281 108.851562 226.886719 116.921875 236.394531 C 120.605469 240.78125 121.125 242.542969 119.777344 247.550781 C 118.816406 251.234375 116.636719 260.09375 115.703125 263.597656 C 114.378906 268.667969 110.28125 270.472656 105.6875 268.617188 C 77.75 257.1875 64.75 226.617188 64.75 192.210938 C 64.75 135.390625 112.667969 67.28125 207.667969 67.28125 C 284.039062 67.28125 334.316406 122.515625 334.316406 181.832031 C 334.316406 260.289062 290.679688 318.910156 226.371094 318.910156 C 204.785156 318.910156 184.472656 307.222656 177.519531 293.96875 C 177.519531 293.96875 165.898438 340.0625 163.460938 348.945312 C 159.207031 364.355469 150.90625 379.785156 143.328125 391.792969 C 161.308594 397.101562 180.324219 399.992188 200.015625 399.992188 C 310.472656 399.992188 400 310.453125 400 199.980469 C 400 89.546875 310.472656 0.0078125 200.015625 0.0078125 Z M 200.015625 0.0078125 "/>
</g>
</svg>
